<svg xmlns="http://www.w3.org/2000/svg" version="1.1" xmlns:xlink="http://www.w3.org/1999/xlink" width="1000" height="1000"><g clip-path="url(#SvgjsClipPath1003)"><rect width="1000" height="1000" fill="#ffffff"></rect><g transform="matrix(3.5,0,0,3.5,150,150)"><svg xmlns="http://www.w3.org/2000/svg" version="1.1" xmlns:xlink="http://www.w3.org/1999/xlink" width="200" height="200"><svg xmlns="http://www.w3.org/2000/svg" version="1.1" xmlns:xlink="http://www.w3.org/1999/xlink" viewBox="0 0 200 200"><rect width="200" height="200" fill="url('#gradient')"></rect><defs><linearGradient id="gradient" gradientTransform="rotate(77 0.5 0.5)"><stop offset="0%" stop-color="#dee90b"></stop><stop offset="100%" stop-color="#d9e241"></stop></linearGradient><clipPath id="SvgjsClipPath1003"><rect width="1000" height="1000" x="0" y="0" rx="350" ry="350"></rect></clipPath></defs><g><g fill="#1b3855" transform="matrix(3.9553648068669527,0,0,3.9553648068669527,9.918131499662351,127.7288253133389)" stroke="#0e5278" stroke-width="0.2"><path d="M3.50-10.57L5.14-3.92L6.81-10.57L10.27-10.57L6.83 0L3.47 0L0.02-10.57L3.50-10.57ZM23.28-14.22L23.28 0L19.87 0L14.83-8.85L14.83 0L11.41 0L11.41-14.22L14.83-14.22L19.86-5.37L19.86-14.22L23.28-14.22ZM24.89-4.82L24.88-5.38Q24.88-6.96 25.50-8.20Q26.11-9.43 27.27-10.10Q28.42-10.76 29.97-10.76L29.97-10.76Q32.34-10.76 33.71-9.29Q35.08-7.82 35.08-5.29L35.08-5.29L35.08-5.18Q35.08-2.71 33.71-1.25Q32.33 0.20 29.99 0.20L29.99 0.20Q27.73 0.20 26.37-1.16Q25-2.51 24.89-4.82L24.89-4.82ZM28.18-5.77L28.17-5.18Q28.17-3.71 28.63-3.03Q29.09-2.34 29.99-2.34L29.99-2.34Q31.75-2.34 31.79-5.05L31.79-5.05L31.79-5.38Q31.79-8.22 29.97-8.22L29.97-8.22Q28.32-8.22 28.18-5.77L28.18-5.77ZM41.00-2.34L41.00-2.34Q41.69-2.34 42.07-2.72Q42.45-3.10 42.44-3.77L42.44-3.77L45.53-3.77Q45.53-2.03 44.28-0.92Q43.04 0.20 41.07 0.20L41.07 0.20Q38.77 0.20 37.44-1.25Q36.11-2.70 36.11-5.25L36.11-5.25L36.11-5.39Q36.11-6.99 36.70-8.22Q37.29-9.44 38.41-10.10Q39.52-10.76 41.04-10.76L41.04-10.76Q43.11-10.76 44.32-9.62Q45.53-8.48 45.53-6.52L45.53-6.52L42.44-6.52Q42.44-7.34 42.04-7.78Q41.64-8.22 40.97-8.22L40.97-8.22Q39.69-8.22 39.47-6.59L39.47-6.59Q39.40-6.07 39.40-5.17L39.40-5.17Q39.40-3.57 39.79-2.96Q40.17-2.34 41.00-2.34Z"></path></g></g></svg></svg></g></g></svg>